<?xml version="1.0" encoding="UTF-8" standalone="no"?>
<!-- Created with Inkscape (http://www.inkscape.org/) -->

<svg
   xmlns:dc="http://purl.org/dc/elements/1.1/"
   xmlns:cc="http://creativecommons.org/ns#"
   xmlns:rdf="http://www.w3.org/1999/02/22-rdf-syntax-ns#"
   xmlns:svg="http://www.w3.org/2000/svg"
   xmlns="http://www.w3.org/2000/svg"
   xmlns:sodipodi="http://sodipodi.sourceforge.net/DTD/sodipodi-0.dtd"
   xmlns:inkscape="http://www.inkscape.org/namespaces/inkscape"
   id="svg2"
   version="1.1"
   inkscape:version="0.91 r"
   width="406.80078"
   height="99.127823"
   viewBox="0 0 406.80078 99.127821"
   sodipodi:docname="2016-0320-Communiyt_Logo.svg"
   inkscape:export-filename="/home/albert/Public/Github/MyPaint/website/assets/discourse/2016-0320-Community_Logo.png"
   inkscape:export-xdpi="90.791862"
   inkscape:export-ydpi="90.791862">
  <metadata
     id="metadata8">
    <rdf:RDF>
      <cc:Work
         rdf:about="">
        <dc:format>image/svg+xml</dc:format>
        <dc:type
           rdf:resource="http://purl.org/dc/dcmitype/StillImage" />
        <dc:title></dc:title>
      </cc:Work>
    </rdf:RDF>
  </metadata>
  <defs
     id="defs6">
    <clipPath
       id="clipPath23756"
       clipPathUnits="userSpaceOnUse">
      <rect
         id="rect23758"
         style="color:#000000;fill:#bebebe"
         rx="0"
         ry="0"
         height="16"
         width="16"
         y="876.35999"
         x="312" />
    </clipPath>
  </defs>
  <sodipodi:namedview
     pagecolor="#ffffff"
     bordercolor="#666666"
     borderopacity="1"
     objecttolerance="10"
     gridtolerance="10"
     guidetolerance="10"
     inkscape:pageopacity="0"
     inkscape:pageshadow="2"
     inkscape:window-width="732"
     inkscape:window-height="480"
     id="namedview4"
     showgrid="false"
     showguides="true"
     inkscape:guide-bbox="true"
     fit-margin-top="0"
     fit-margin-left="0"
     fit-margin-right="0"
     fit-margin-bottom="0"
     inkscape:zoom="1.4454106"
     inkscape:cx="166.524"
     inkscape:cy="66.41229"
     inkscape:window-x="2475"
     inkscape:window-y="232"
     inkscape:window-maximized="0"
     inkscape:current-layer="svg2" />
  <path
     style="fill:#333333;fill-opacity:1"
     d="m 169.75069,96.166543 c -2.97431,-1.19553 -3.64272,-3.050404 -1.5625,-4.336054 0.6875,-0.4249 1.25,-1.80666 1.25,-3.07059 0,-1.79171 0.88404,-2.25742 4.01234,-2.11372 3.23795,0.14873 4.34003,-0.48598 5.71022,-3.28869 2.30086,-4.706388 1.68515,-6.506108 -15.49008,-45.276998 -0.71626,-1.61686 -1.22836,4.58261 -1.44968,17.54966 l -0.34221,20.04966 -3.40779,1.22449 c -1.87429,0.67348 -4.75453,1.02325 -6.40053,0.77729 l -2.99273,-0.44721 0.8812,-18.92375 c 0.48466,-10.40807 0.61606,-18.65519 0.29198,-18.32694 -0.52257,0.5293 -11.84577,29.57714 -13.78115,35.35331 -0.61212,1.82688 -1.8715,2.18386 -6.61447,1.875 l -5.85839,-0.38151 -4.05594,-13.125 c -2.23076,-7.21875 -5.77362,-18.46875 -7.87302,-25 l -3.81708,-11.875 0.59366,12.8125 c 0.32652,7.04687 0.90067,18.4375 1.2759,25.3125 l 0.68223,12.5 -4.11973,-0.0171 c -9.080002,-0.0376 -9.273322,-0.29367 -8.298682,-10.9917 0.48184,-5.28893 0.9161,-19.20686 0.96501,-30.92873 0.0618,-14.8035 0.54705,-21.77061 1.588942,-22.8125 2.03329,-2.03329 14.68914,-1.98153 15.28054,0.0625 0.24864,0.85937 2.73073,9.4375 5.51575,19.0625 2.78502,9.625 5.99139,20.86077 7.12526,24.96837 l 2.0616,7.46839 7.25111,-21.21839 c 10.72652,-31.38822 8.8821,-28.28902 16.57222,-27.84644 l 6.56852,0.3781 0.36726,9.0625 c 0.202,4.98437 0.8187,9.0625 1.37045,9.0625 0.55176,0 2.77644,-0.88461 4.94373,-1.9658 4.96391,-2.47633 6.13685,-1.44171 10.02294,8.8408 1.55897,4.125 4.38555,10.51544 6.28129,14.20099 l 3.44679,6.70097 4.14361,-12.32597 c 2.27899,-6.7793 4.66266,-12.9872 5.29703,-13.79534 1.31581,-1.67626 11.26599,-6.80822 11.92415,-6.15008 0.23851,0.23852 -1.03392,3.73797 -2.82763,7.77655 -4.33691,9.76469 -11.12698,28.34439 -13.16572,36.02537 -3.23909,12.203378 -6.86146,17.862848 -13.62781,21.291618 -3.41989,1.732994 -6.3773,3.115244 -6.57203,3.071654 -0.19474,-0.0436 -1.61968,-0.58795 -3.16656,-1.20971 z m 41.16224,-12.148554 c 2.33257,-6.612198 2.49838,-9.549298 2.07165,-36.694848 -0.36768,-23.38843 -0.1195,-29.82898 1.19646,-31.05833 2.2854,-2.13488 24.19026,-2.91842 32.75715,-1.17171 8.63507,1.7606 15.73655,5.31734 17.61144,8.8206 2.61745,4.89076 -0.5776,14.75199 -6.73884,20.79879 -5.69969,5.59382 -12.54428,7.743 -24.65948,7.743 -7.56865,0 -7.86275,0.76306 -6.77542,17.57997 l 0.85379,13.204978 -8.90674,3.98252 c -4.89871,2.19039 -9.14048,3.98253 -9.42614,3.98253 -0.28567,0 0.62159,-3.23438 2.01613,-7.1875 z m 38.40373,-42.124648 c 1.95458,-1.01075 3.87703,-3.07389 4.27213,-4.58475 0.93029,-3.55741 -2.00288,-10.5347 -5.13285,-12.20981 -4.48335,-2.3994 -13.13124,-3.73245 -19.39841,-2.9902 l -6.19947,0.73423 0.712,8.49264 c 0.39159,4.67096 1.37082,9.72368 2.17605,11.22826 1.36829,2.55668 2.07085,2.68434 10.74042,1.95149 5.102,-0.43127 10.87556,-1.61112 12.83013,-2.62186 z m 48.87646,34.91531 0.96051,-4.2588 -5.07203,2.58755 c -6.33094,3.22982 -18.12109,2.83324 -22.07212,-0.7424 -5.69295,-5.15205 -4.21634,-16.62822 2.59255,-20.14924 1.95893,-1.01299 8.12555,-2.63856 13.70357,-3.61236 5.57804,-0.9738 10.40626,-2.03492 10.7294,-2.35806 1.22648,-1.22646 -3.59999,-8.4888 -6.52825,-9.82301 -4.33849,-1.97674 -12.2276,0.53819 -14.01856,4.46891 -0.9288,2.0385 -2.68334,3.17389 -5.51839,3.57102 -2.28614,0.32026 -5.19887,1.03163 -6.47274,1.58084 -1.45273,0.62634 -0.18748,-1.80041 3.39413,-6.50992 4.88701,-6.42599 6.57254,-7.72897 11.69114,-9.03765 3.28947,-0.84103 7.27295,-2.0446 8.85217,-2.67459 5.80463,-2.31563 10.38703,-1.35378 14.54269,3.05253 6.1898,6.5631 7.27635,12.06027 5.64825,28.57606 -0.76453,7.75552 -1.7663,14.43825 -2.22615,14.85048 -0.45985,0.41224 -3.16049,1.64681 -6.0014,2.74348 l -5.16529,1.993958 z m -5.07838,-7.44018 c 5.31101,-2.74643 9.04776,-15.35752 4.13595,-13.95831 -1.20313,0.34274 -5.5625,1.28535 -9.6875,2.09472 -4.125,0.80936 -8.20313,2.04197 -9.0625,2.73913 -2.3253,1.88642 -1.91934,8.12942 0.625,9.61135 3.19061,1.85837 9.9058,1.62464 13.98905,-0.4869 z m 70.46846,7.14952 c 1.8842,-12.36079 2.20034,-31.00084 0.57771,-34.0625 -2.23245,-4.21233 -10.40173,-4.99835 -14.82091,-1.42604 -2.86212,2.31365 -3.06082,3.35419 -3.65181,19.1239 -0.62451,16.66429 -0.62741,16.67743 -3.75,17.05094 -1.71875,0.20557 -3.96875,0.66376 -5,1.01817 -1.03125,0.35443 -2.12524,0.46747 -2.43109,0.25122 -0.30585,-0.21625 -0.5871,-10.33188 -0.625,-22.47915 l -0.0689,-22.08595 5.3125,-2.5853 5.3125,-2.5853 0,4.39617 0,4.39618 3.54868,-2.62365 c 3.31434,-2.4504 8.41448,-4.21496 16.86899,-5.83639 2.50646,-0.48069 4.6776,0.15966 7.42276,2.18925 l 3.88009,2.86868 4.45224,-2.59669 c 7.03081,-4.1006 4.45224,1.23634 4.45224,-7.30619 0,-4.29179 0.44348,-4.90604 5,-6.92531 l 5,-2.21581 0.86546,4.62313 c 0.476,2.54273 0.89787,6.45127 0.9375,8.68564 0.0569,3.20515 -0.2219,4.32761 1.04326,4.97977 1.19028,0.61356 2.18676,1.21089 2.86691,1.31114 1.34533,0.1983 2.28687,0.27159 3.66187,0.27159 3.83706,0 2.99792,1.83828 -2.5,5.47663 -2.75,1.81986 -5.0363,3.72273 -5.08067,4.22861 -0.17307,1.97336 -0.23987,19.82459 -0.0841,22.48226 0.11575,1.97463 0.94944,2.8125 2.79855,2.8125 1.88806,0 2.41892,0.5598 1.875,1.97724 -0.41731,1.08747 -0.75874,2.77497 -0.75874,3.75 0,1.33074 -1.84531,1.77276 -7.40067,1.77276 -7.29649,0 -7.41295,-0.0559 -8.27194,-3.96675 -0.47918,-2.18171 -0.6645,-10.66292 -0.41181,-18.84714 l 0.45942,-14.88038 -3.93447,-1.66369 -3.93447,-1.66369 -0.90473,20.51083 c -0.78268,17.74338 -1.17943,20.51186 -2.94054,20.51852 -1.11969,0.004 -3.64696,0.84799 -5.61618,1.874998 -4.88673,2.54861 -4.96036,2.49858 -4.1496,-2.820198 z m -46.6891,-1.25 c -0.0242,-1.20313 -0.35672,-10.96629 -0.73883,-21.6959 l -0.69475,-19.5084 4.80133,-1.92593 c 3.50434,-1.40566 5.01071,-1.53846 5.5764,-0.4916 0.42629,0.78888 1.10974,9.02808 1.51879,18.30933 0.40905,9.28125 1.0999,18.10101 1.53521,19.59946 0.65655,2.26005 -0.0733,3.16563 -4.2815,5.3125 -6.19045,3.15814 -7.65953,3.23439 -7.71665,0.40054 z m -0.21601,-54.88329 c -0.46674,-3.998 -0.10662,-4.57902 4.19999,-6.77609 2.59079,-1.32172 5.1548,-2.40332 5.69781,-2.40356 0.9953,-4.4e-4 1.23883,10.85313 0.26239,11.69425 -0.2888,0.24879 -2.57812,0.76869 -5.08738,1.15535 -4.44643,0.68518 -4.57525,0.59198 -5.07281,-3.66995 z"
     id="path4138"
     inkscape:connector-curvature="0"
     sodipodi:nodetypes="ssssssscsscsssscsscsscssssssscsscssssscsscssscssscssssscssssssscssssccsssssssssssssssscccsssscccsssccsscccccssscssscscsssssssssssscccscscccscssssscssscss" />
  <g
     id="layer1"
     transform="matrix(6.1930339,0,0,6.1930339,-1938.4196,-5427.3271)"
     style="fill:#333333;fill-opacity:1">
    <g
       id="layer2"
       transform="translate(229.28,556.07)"
       display="none"
       style="display:none;opacity:0.5;fill:#333333;fill-opacity:1">
      <rect
         id="48x48"
         style="color:#000000;display:inline;fill:#333333;fill-opacity:1"
         height="48"
         width="48"
         display="inline"
         y="4.25"
         x="-2.25" />
      <rect
         id="32x32"
         style="color:#000000;display:inline;fill:#333333;fill-opacity:1"
         height="32"
         width="32"
         display="inline"
         y="20.25"
         x="53.75" />
      <rect
         id="24x24"
         style="color:#000000;display:inline;fill:#333333;fill-opacity:1"
         height="24"
         width="24"
         display="inline"
         y="28.25"
         x="93.75" />
      <rect
         id="22x22"
         style="color:#000000;display:inline;fill:#333333;fill-opacity:1"
         height="22"
         width="22"
         display="inline"
         y="30.25"
         x="125.75" />
    </g>
    <path
       id="rect23745"
       style="color:#000000;fill:#333333;fill-opacity:1"
       d="m 314,877.36 c -0.554,0 -1,0.446 -1,1 l 0,10 c 0,0.554 0.446,1 1,1 l 12,0 c 0.554,0 1,-0.446 1,-1 l 0,-9.9688 c -0.40643,0.49032 -0.79061,0.94173 -1.125,1.3125 -0.30207,0.33494 -0.59509,0.64953 -0.875,0.9375 l -0.0312,0 c -0.89538,0.949 -2.2626,2.2734 -3.9688,3.7188 0.0719,0.50544 0.0996,1.0384 -0.15625,1.5312 -0.30802,0.59343 -0.90636,1.0625 -1.6562,1.25 -0.64451,0.16115 -1.3707,0.26455 -2.0625,0.21875 -0.34592,-0.0229 -0.68055,-0.0713 -1.0312,-0.21875 -0.3507,-0.1474 -0.8009,-0.47182 -0.9375,-1.0312 a 1.0086,1.0086 0 0 1 0.96875,-1.25 c 0.1948,10e-5 0.2045,-0.0256 0.25,-0.0625 0.0455,-0.0369 0.12405,-0.15195 0.21875,-0.34375 0.18937,-0.3836 0.26039,-1.1475 1.125,-1.7188 0.37715,-0.2491 0.80763,-0.3165 1.2188,-0.3125 1.0056,-1.4324 2.1187,-2.9584 3.3125,-4.2812 -0.001,10e-4 0.0292,-0.0283 0.0312,-0.0312 0.0107,-0.0187 0.0336,-0.0747 0.15625,-0.21875 a 1.0086,1.0086 0 0 1 0.0312,-0.0312 c 0.133,-0.14381 0.2449,-0.21365 0.3125,-0.28125 0.0132,-0.0149 0.0183,-0.017 0.0312,-0.0312 0.0783,-0.086 0.12125,-0.11731 0.1875,-0.1875 l -9,0 z"
       inkscape:connector-curvature="0" />
    <path
       id="path23225"
       style="color:#000000;line-height:normal;font-family:Sans;text-indent:0;text-transform:none;block-progression:tb;fill:#333333;fill-opacity:1"
       d="m 314.38,890.36 -0.28125,0.5625 a 1.0063276,1.0063276 0 1 0 1.8125,0.875 l 0.71875,-1.4375 -2.25,0 z m 9,0 0.71875,1.4375 a 1.0063276,1.0063276 0 1 0 1.8125,-0.875 L 325.63,890.36 l -2.25,0 z"
       line-height="normal"
       inkscape:connector-curvature="0" />
    <path
       id="path9274-5-7"
       d="m 330.03,872.36 c -1.7996,1.2988 -4.1852,3.3121 -6.0938,5.3438 -0.17324,0.18442 -0.36758,0.34657 -0.53125,0.53125 -0.10346,0.10788 -0.20907,0.20067 -0.3125,0.3125 -0.0653,0.0767 -0.12423,0.17347 -0.1875,0.25 -1.3047,1.442 -2.5877,3.1264 -3.6562,4.6875 -0.30993,-0.15117 -0.6844,-0.17668 -1.0938,0.0937 -0.75359,0.49786 -0.60416,2.2818 -2.1562,2.2812 0.14696,0.60185 1.7391,0.58086 2.8125,0.3125 1.0131,-0.25331 1.3178,-1.1327 1.125,-1.875 -0.0273,-0.10506 -0.0928,-0.20745 -0.15625,-0.3125 1.9784,-1.6394 3.4153,-3.0129 4.375,-4.0312 0.2404,-0.24587 0.52201,-0.58075 0.84375,-0.9375 1.2036,-1.3346 2.9132,-3.4268 5.0312,-6.6562 z"
       clip-path="url(#clipPath23756)"
       style="fill:#333333;fill-opacity:1"
       inkscape:connector-curvature="0" />
  </g>
</svg>
